<svg width="28" height="28" viewBox="0 0 28 28" fill="none" xmlns="http://www.w3.org/2000/svg">
<rect width="28" height="28" rx="14" fill="#EFF0FD"/>
<path d="M16.7509 6.87336C16.9746 6.84877 17.2099 6.87319 17.4452 6.95421C17.6804 7.03522 17.9067 7.14867 18.1253 7.30697C18.4943 7.57449 18.7734 7.88332 18.9704 8.24521C19.1667 8.60088 19.2919 8.99582 19.3397 9.43069C19.4094 10.0644 19.3348 10.7579 19.109 11.5059C18.8831 12.2538 18.5516 13.0133 18.1139 13.7783C17.6706 14.5501 17.1673 15.2908 16.5985 16.0073C16.0227 16.7182 15.4091 17.3704 14.7576 17.964C14.1054 18.5513 13.4422 19.0392 12.773 19.4146C12.0976 19.7907 11.4368 20.0143 10.7907 20.0853C10.3683 20.1318 9.95624 20.1016 9.56709 19.9935C9.17173 19.8861 8.79787 19.6883 8.45103 19.3932C8.01591 19.0386 7.7755 18.6249 7.72494 18.1652C7.70581 17.9913 7.72396 17.8132 7.78143 17.6497C7.83821 17.48 7.93432 17.3248 8.08355 17.1952L9.95655 15.5305C10.0996 15.4016 10.2336 15.3051 10.3641 15.2341C10.4884 15.1639 10.6155 15.1185 10.7335 15.1055C10.8826 15.0891 11.0365 15.1162 11.1889 15.1874C11.3407 15.2525 11.5028 15.3541 11.6683 15.4868L12.211 15.905C12.2869 15.9658 12.371 15.988 12.4704 15.9771C12.5201 15.9716 12.5629 15.9606 12.6113 15.9427C12.6589 15.9186 12.6942 15.8959 12.7301 15.8794C12.9228 15.745 13.1687 15.523 13.4617 15.2142C13.754 14.8991 14.0505 14.5647 14.3442 14.2054C14.6366 13.8337 14.9055 13.4772 15.1489 13.1172C15.3867 12.764 15.5437 12.4764 15.6323 12.2529C15.6413 12.2205 15.6558 12.1811 15.6697 12.1356C15.6829 12.0838 15.6836 12.0335 15.6774 11.9775C15.6658 11.8719 15.6197 11.7953 15.5438 11.7344L15.026 11.3135C14.8536 11.1753 14.7191 11.0392 14.6289 10.9045C14.5262 10.7712 14.467 10.6331 14.4499 10.4777C14.4369 10.3597 14.4481 10.2327 14.489 10.0899C14.5299 9.94708 14.5949 9.79531 14.6834 9.62838L15.9172 7.41147C16.0113 7.23765 16.1295 7.11147 16.2773 7.02606C16.4258 6.94685 16.577 6.89249 16.7509 6.87336Z" fill="#0D7F61" stroke="#0D7F61" stroke-miterlimit="10"/>
<path d="M11.1916 9.66656C10.8189 9.70755 10.2794 10.0624 9.8613 10.5485C9.47636 10.9933 9.19896 11.5582 9.25635 12.0801" fill="#0D7F61"/>
<path d="M11.1916 9.66656C10.8189 9.70755 10.2794 10.0624 9.8613 10.5485C9.47636 10.9933 9.19896 11.5582 9.25635 12.0801" stroke="#0D7F61" stroke-linecap="round" stroke-linejoin="round"/>
<path d="M10.953 7.49218C8.54879 7.75659 6.81811 9.91496 7.08252 12.3192" stroke="#0D7F61" stroke-linecap="round" stroke-linejoin="round"/>
</svg>
