<svg width="19" height="19" viewBox="0 0 19 19" fill="none" xmlns="http://www.w3.org/2000/svg">
<path d="M14.5109 1.60741C14.7959 1.60741 15.0888 1.67074 15.3738 1.80533C15.6588 1.93991 15.928 2.11407 16.1813 2.34366C16.6088 2.73157 16.9176 3.15908 17.1155 3.64199C17.3134 4.11699 17.4163 4.63157 17.4163 5.18574C17.4163 5.99324 17.2263 6.85616 16.8384 7.76658C16.4505 8.67699 15.928 9.58741 15.2709 10.4899C14.6059 11.4003 13.8697 12.2632 13.0543 13.0866C12.2309 13.902 11.368 14.6382 10.4655 15.2953C9.56301 15.9445 8.66051 16.467 7.76593 16.847C6.86343 17.227 6.00051 17.417 5.17717 17.417C4.63884 17.417 4.12426 17.322 3.64926 17.132C3.16634 16.942 2.72301 16.6412 2.32717 16.2216C1.82842 15.7149 1.58301 15.1607 1.58301 14.5749C1.58301 14.3532 1.63051 14.1316 1.72551 13.9337C1.82051 13.7278 1.96301 13.5457 2.16884 13.4032L4.75759 11.5666C4.95551 11.4241 5.13759 11.3212 5.31176 11.2499C5.47801 11.1787 5.64426 11.1391 5.79467 11.1391C5.98467 11.1391 6.17467 11.1945 6.35676 11.3053C6.53884 11.4082 6.72884 11.5587 6.91884 11.7487L7.54426 12.3503C7.63134 12.4374 7.73426 12.477 7.86093 12.477C7.92426 12.477 7.97967 12.4691 8.04301 12.4532C8.10634 12.4295 8.15384 12.4057 8.20134 12.3899C8.46259 12.2474 8.80301 12.002 9.21468 11.6537C9.62634 11.2974 10.0459 10.9174 10.4655 10.5057C10.8851 10.0782 11.273 9.66658 11.6293 9.24699C11.9776 8.83533 12.2151 8.49491 12.3576 8.22574C12.3734 8.18616 12.3972 8.13866 12.4209 8.08324C12.4447 8.01991 12.4526 7.95658 12.4526 7.88533C12.4526 7.75074 12.4051 7.64783 12.318 7.56074L11.7243 6.95907C11.5263 6.76116 11.3759 6.57116 11.2809 6.38908C11.1701 6.20699 11.1147 6.02491 11.1147 5.82699C11.1147 5.67658 11.1463 5.51824 11.2176 5.34408C11.2888 5.16991 11.3918 4.98782 11.5263 4.78991L13.3868 2.16949C13.5293 1.96366 13.6955 1.82116 13.8934 1.73408C14.0913 1.65491 14.2893 1.60741 14.5109 1.60741Z" fill="#0D7F61" stroke="#0D7F61" stroke-miterlimit="10"/>
<path d="M7.12435 4.35417C6.64935 4.35417 5.92102 4.72625 5.32727 5.28042C4.78102 5.78708 4.35352 6.46 4.35352 7.125" fill="#0D7F61"/>
<path d="M7.12435 4.35417C6.64935 4.35417 5.92102 4.72625 5.32727 5.28042C4.78102 5.78708 4.35352 6.46 4.35352 7.125" stroke="#0D7F61" stroke-linecap="round" stroke-linejoin="round"/>
<path d="M7.12467 1.58333C4.06092 1.58333 1.58301 4.06125 1.58301 7.125" stroke="#0D7F61" stroke-linecap="round" stroke-linejoin="round"/>
</svg>
