<svg width="28" height="28" viewBox="0 0 28 28" fill="none" xmlns="http://www.w3.org/2000/svg">
<rect width="28" height="28" rx="14" fill="#EFF0FD"/>
<path d="M21.5507 12.2484H12.168C12.5755 12.8642 12.8144 13.6008 12.8144 14.3931C12.8144 15.1857 12.5753 15.9225 12.168 16.5379H21.5507C22.7332 16.5379 23.6954 15.5759 23.6954 14.3931C23.6954 13.2104 22.7332 12.2484 21.5507 12.2484Z" fill="#0D7F61"/>
<path d="M5.6251 12.3148C4.69312 12.5478 4 13.3899 4 14.3931C4 15.3963 4.69312 16.2386 5.6251 16.4712C5.24357 15.869 5.01935 15.1574 5.01935 14.3931C5.01935 13.6288 5.24332 12.9172 5.6251 12.3148Z" fill="#0D7F61"/>
<path d="M8.91555 11C7.04501 11 5.52344 12.5221 5.52344 14.3931C5.52344 16.2642 7.04527 17.7862 8.91555 17.7862C10.7863 17.7862 12.3084 16.2644 12.3084 14.3931C12.3084 12.5218 10.7863 11 8.91555 11Z" fill="#0D7F61"/>
</svg>
