<svg width="306" height="306" viewBox="0 0 306 306" fill="none" xmlns="http://www.w3.org/2000/svg">
<circle cx="163.655" cy="164.748" r="95.8982" fill="#E0F3EF"/>
<circle cx="56.2822" cy="137.699" r="21.8571" fill="#E0F3EF"/>
<circle cx="98.3572" cy="50.2711" r="13.6607" fill="#E0F3EF"/>
<circle cx="248.898" cy="68.0304" r="10.6554" fill="#E0F3EF"/>
<circle cx="245.62" cy="228.134" r="5.19107" fill="#E0F3EF"/>
<path d="M188.653 74.1448C188.246 74.0582 188.246 73.4769 188.653 73.3902L194.811 72.0807C194.96 72.0491 195.076 71.9334 195.108 71.7851L196.434 65.6702C196.522 65.2649 197.1 65.2649 197.188 65.6702L198.514 71.7851C198.546 71.9334 198.662 72.0491 198.81 72.0807L204.969 73.3902C205.376 73.4769 205.376 74.0582 204.969 74.1448L198.81 75.4544C198.662 75.4859 198.546 75.6016 198.514 75.7499L197.188 81.8649C197.1 82.2702 196.522 82.2702 196.434 81.8649L195.108 75.7499C195.076 75.6016 194.96 75.4859 194.811 75.4544L188.653 74.1448Z" fill="#0D7F61"/>
<path d="M50.6599 177.099C50.7822 176.521 51.6068 176.521 51.7291 177.099L53.5557 185.729C53.6002 185.939 53.7639 186.104 53.974 186.149L62.5144 188.01C63.0879 188.135 63.0879 188.953 62.5144 189.078L53.974 190.938C53.7639 190.984 53.6002 191.149 53.5557 191.359L51.7291 199.989C51.6068 200.566 50.7822 200.566 50.6599 199.989L48.8333 191.359C48.7888 191.149 48.6251 190.984 48.415 190.938L39.8746 189.078C39.3011 188.953 39.3011 188.135 39.8746 188.01L48.415 186.149C48.6251 186.104 48.7888 185.939 48.8333 185.729L50.6599 177.099Z" fill="#0D7F61"/>
<path d="M188.89 252.424C189.012 251.846 189.837 251.846 189.959 252.424L191.024 257.458C191.069 257.668 191.233 257.833 191.443 257.879L196.439 258.967C197.013 259.092 197.013 259.91 196.439 260.035L191.443 261.124C191.233 261.169 191.069 261.334 191.024 261.544L189.959 266.579C189.837 267.156 189.012 267.156 188.89 266.579L187.824 261.544C187.78 261.334 187.616 261.169 187.406 261.124L182.409 260.035C181.836 259.91 181.836 259.092 182.409 258.967L187.406 257.879C187.616 257.833 187.78 257.668 187.824 257.458L188.89 252.424Z" fill="#0D7F61"/>
<path d="M266.384 106.191L199.508 93.3756C196.544 92.8076 193.68 94.75 193.112 97.7139L175.978 187.132C175.655 188.818 176.143 190.558 177.296 191.83L208.374 226.11C210.178 228.1 213.162 228.484 215.411 227.014L251.633 203.343C252.873 202.533 253.731 201.253 254.01 199.797L270.722 112.586C271.29 109.622 269.347 106.759 266.384 106.191Z" fill="#0D7F61"/>
<path d="M219.059 124.862C214.111 123.805 209.251 126.919 208.204 131.818C207.359 135.773 206.922 145.495 220.329 158.281C220.57 158.508 220.868 158.665 221.192 158.734C221.516 158.803 221.852 158.782 222.164 158.673C239.626 152.482 243.2 143.43 244.045 139.475C245.091 134.576 241.927 129.747 236.98 128.69C232.032 127.633 226.871 132.152 226.871 132.152C226.871 132.152 224.007 125.919 219.059 124.862Z" fill="#E0F3EF"/>
<circle cx="213.654" cy="203.819" r="7.10357" fill="#E0F3EF"/>
<path d="M140.904 64.676L51.7651 96.9623C48.4084 98.1781 46.6729 101.885 47.8887 105.242L90.3185 222.385C91.0102 224.295 92.5594 225.769 94.5014 226.364L156.081 245.245C159.12 246.177 162.385 244.762 163.782 241.907L190.27 187.783C191.041 186.209 191.139 184.389 190.542 182.74L149.183 68.5525C147.967 65.1957 144.26 63.4602 140.904 64.676Z" fill="#E0F3EF" stroke="#0D7F61" stroke-width="2"/>
<path d="M111.422 121.757C111.747 121.63 111.993 121.357 112.085 121.02C112.085 121.02 112.085 121.02 112.085 121.02L112.086 121.018L112.09 121.001C112.095 120.985 112.102 120.96 112.112 120.927C112.132 120.859 112.163 120.757 112.205 120.625C112.289 120.359 112.419 119.972 112.597 119.497C112.954 118.545 113.502 117.248 114.264 115.87C115.806 113.078 118.129 110.127 121.359 108.859C127.978 106.262 135.41 109.472 137.972 116C139.039 118.72 140.33 123.585 139.288 130.525C138.246 137.472 134.856 146.567 126.452 157.723C126.27 157.962 126.025 158.147 125.745 158.257C125.465 158.367 125.16 158.398 124.864 158.346C111.116 155.883 102.445 151.521 96.9558 147.137C91.4721 142.757 89.11 138.312 88.0429 135.593C85.4812 129.065 88.7471 121.656 95.3654 119.059C98.5954 117.792 102.306 118.375 105.335 119.373C106.831 119.866 108.114 120.444 109.024 120.899C109.478 121.126 109.836 121.322 110.078 121.459C110.2 121.528 110.292 121.581 110.352 121.617C110.382 121.635 110.404 121.649 110.418 121.657L110.433 121.666L110.435 121.667C110.435 121.667 110.435 121.668 110.436 121.668L110.436 121.668C110.436 121.668 110.436 121.668 110.436 121.668C110.732 121.852 111.098 121.885 111.422 121.757Z" fill="#0D7F61" stroke="#0D7F61" stroke-width="2.21178" stroke-linecap="round" stroke-linejoin="round"/>
<circle cx="147.263" cy="214.474" r="9.01607" fill="#0D7F61"/>
</svg>
