<svg width="16" height="16" viewBox="0 0 16 16" fill="none" xmlns="http://www.w3.org/2000/svg">
<path d="M15.8132 7.47663L13.6965 4.93458C13.4475 4.63551 13.0739 4.63551 12.8249 4.93458L12.3891 5.45794L13.8833 7.25234H6.56809C6.22568 7.25234 5.94553 7.58878 5.94553 8C5.94553 8.41121 6.22568 8.74766 6.56809 8.74766H13.8833L12.3891 10.5421L12.8249 11.0654C13.0739 11.3645 13.4475 11.3645 13.6965 11.0654L15.8132 8.52336C16.0623 8.2243 16.0623 7.7757 15.8132 7.47663ZM3.45525 16C1.58755 16 0.0622568 14.243 0 12V4C0.0622568 1.75701 1.58755 0 3.45525 0H7.47082C9.30739 0 10.7704 1.79439 10.8016 4C10.8016 4.4486 10.5214 4.78505 10.1479 4.78505C9.77432 4.78505 9.49416 4.4486 9.49416 4C9.49416 2.65421 8.59144 1.57009 7.47082 1.57009H3.45525C2.33463 1.57009 1.36965 2.61682 1.30739 4V12C1.36965 13.3458 2.3035 14.4299 3.45525 14.4299H7.47082C8.59144 14.4299 9.49416 13.3458 9.49416 12C9.49416 11.5514 9.77432 11.215 10.1479 11.215C10.5214 11.215 10.8016 11.5514 10.8016 12C10.8016 14.2056 9.30739 16 7.47082 16H3.45525Z" fill="white"/>
</svg>
