<svg width="20" height="21" viewBox="0 0 20 21" fill="none" xmlns="http://www.w3.org/2000/svg">
<path d="M1.36364 18.0037H4.54545V10.2764L0 6.86731V16.64C0 17.3934 0.610227 18.0037 1.36364 18.0037Z" fill="#4285F4"/>
<path d="M15.4546 18.0037H18.6364C19.3898 18.0037 20 17.3934 20 16.64V6.86731L15.4546 10.2764V18.0037Z" fill="#34A853"/>
<path d="M15.4546 4.36731V10.2764L20 6.86731V5.04913C20 3.3639 18.0762 2.4014 16.7273 3.41277L15.4546 4.36731Z" fill="#FBBC04"/>
<path fill-rule="evenodd" clip-rule="evenodd" d="M4.54541 10.2764V4.36731L9.99996 8.45822L15.4545 4.36731V10.2764L9.99996 14.3673L4.54541 10.2764Z" fill="#EA4335"/>
<path d="M0 5.04913V6.86731L4.54545 10.2764V4.36731L3.27273 3.41277C1.92386 2.4014 0 3.3639 0 5.04913Z" fill="#C5221F"/>
</svg>
