<svg width="28" height="28" viewBox="0 0 28 28" fill="none" xmlns="http://www.w3.org/2000/svg">
<rect width="28" height="28" rx="14" fill="#EFF0FD"/>
<path d="M13.5 21C12.5076 20.1622 11.5877 19.2437 10.75 18.2542C9.49285 16.7682 8 14.555 8 12.4461C7.99946 11.3691 8.32176 10.3161 8.92611 9.42039C9.53047 8.5247 10.3897 7.82659 11.3951 7.4144C12.4005 7.00221 13.5069 6.89448 14.5741 7.10483C15.6414 7.31517 16.6217 7.83415 17.3908 8.59609C17.9029 9.10065 18.3088 9.70073 18.585 10.3616C18.8612 11.0224 19.0023 11.731 19 12.4461C19 14.555 17.5071 16.7682 16.25 18.2542C15.4123 19.2437 14.4924 20.1622 13.5 21ZM13.5 10.1132C12.8748 10.1132 12.2753 10.359 11.8332 10.7965C11.3912 11.234 11.1428 11.8274 11.1428 12.4461C11.1428 13.0648 11.3912 13.6582 11.8332 14.0957C12.2753 14.5332 12.8748 14.779 13.5 14.779C14.1251 14.779 14.7247 14.5332 15.1667 14.0957C15.6088 13.6582 15.8571 13.0648 15.8571 12.4461C15.8571 11.8274 15.6088 11.234 15.1667 10.7965C14.7247 10.359 14.1251 10.1132 13.5 10.1132Z" fill="#0D7F61"/>
</svg>
