<svg width="65" height="53" viewBox="0 0 65 53" fill="none" xmlns="http://www.w3.org/2000/svg">
<path d="M59.0052 18.216C57.8347 14.701 55.7783 11.7275 53.1701 9.45192L54.0146 8.42883L54.3758 8.72703C54.7101 9.00306 55.0016 9.03739 55.2318 8.75861L55.8305 8.03312C56.0604 7.75435 55.9896 7.45281 55.6553 7.17678L52.443 4.52536C52.1087 4.24933 51.8531 4.2815 51.623 4.56028L51.0242 5.28577C50.7943 5.56435 50.8292 5.79957 51.1635 6.0756L51.5788 6.41834L50.6648 7.5256L51.0128 7.813C48.1931 5.95377 44.9261 4.80571 41.5146 4.5334L41.4728 2.69163L42.0965 2.67751C42.6741 2.66436 42.9978 2.44503 42.9868 1.96379L42.9583 0.710767C42.9473 0.229528 42.6132 -0.0127588 42.0357 0.000385507L36.488 0.126531C35.9104 0.139675 35.6809 0.394714 35.6919 0.875952L35.7203 2.12898C35.7313 2.61022 35.9712 2.8168 36.5488 2.80365L37.2659 2.78737L37.308 4.64778C36.068 4.81218 34.8259 5.09076 33.5961 5.5C31.7635 6.11013 30.0812 6.96471 28.5641 8.0084L27.8349 7.01042L28.213 6.73399C28.563 6.47817 28.6683 6.2041 28.4551 5.91238L27.9001 5.15276C27.6868 4.86103 27.377 4.85515 27.027 5.11097L23.6639 7.56836C23.3139 7.82419 23.2819 8.07981 23.4949 8.37154L24.05 9.13116C24.2632 9.42289 24.4996 9.44721 24.8498 9.19139L25.2845 8.87377L26.1075 10.0001C20.6456 15.2052 18.3426 23.289 20.8794 30.9091C23.7392 39.4988 31.8734 44.8786 40.4884 44.6488C42.6668 44.5908 44.877 44.1735 47.0393 43.3593C51.5743 41.6515 55.3575 38.3358 57.6452 34.0639C60.2809 29.1431 60.7606 23.4891 59.0052 18.216ZM55.8915 32.4535L54.3535 31.6379C54.1547 31.5318 53.9056 31.6199 53.8193 31.8335C53.7443 32.0187 53.8383 32.2306 54.0146 32.3242L55.536 33.1309C54.1869 35.5916 52.3096 37.6578 50.0472 39.2134C49.8968 39.4741 49.6305 39.6381 49.2978 39.7048C48.1376 40.4189 46.8883 41.0067 45.5635 41.4477C44.1749 41.9099 42.7696 42.1879 41.3722 42.3003L41.3688 42.2377C41.1142 42.2652 40.8572 42.2693 40.6041 42.2644L40.6084 42.3458C40.5476 42.348 40.4868 42.3523 40.426 42.3541C37.648 42.4278 34.9277 41.8405 32.4674 40.7001L33.1921 39.2397C33.2812 39.0603 33.2335 38.8328 33.0642 38.7262C32.8696 38.6038 32.6165 38.6788 32.5167 38.8795L31.78 40.364C29.3198 39.0935 27.1534 37.2535 25.4964 34.9529L26.8358 34.0453C27.0011 33.9333 27.0716 33.7124 26.9768 33.5364C26.8677 33.3337 26.6105 33.2733 26.4246 33.3999L25.0625 34.3229C24.2357 33.0632 23.555 31.6797 23.0573 30.1842C22.6537 28.9722 22.3914 27.747 22.2557 26.5258L23.8614 26.3955C24.0586 26.3796 24.2261 26.2237 24.232 26.0261C24.2387 25.7942 24.0482 25.6096 23.8187 25.6316L22.1854 25.7642C21.9941 22.9297 22.4968 20.1371 23.5789 17.5986L25.0526 18.2808C25.1046 18.3047 25.1594 18.3161 25.2131 18.3161C25.3828 18.3161 25.5439 18.2025 25.5874 18.0155C25.6288 17.8378 25.5262 17.6567 25.3607 17.5802L23.8946 16.9016C25.0893 14.4005 26.8613 12.1791 29.1029 10.4536L30.0657 11.7947C30.1405 11.8989 30.2578 11.9542 30.3769 11.9542C30.4561 11.9542 30.5366 11.9295 30.6052 11.8783C30.7757 11.7514 30.7973 11.5018 30.6733 11.3292L29.7185 9.99928C31.0994 9.02876 32.6173 8.23774 34.299 7.67803C35.8869 7.14932 37.3339 6.85269 39.1186 6.77892V8.46532C39.1186 8.67661 39.3535 8.84787 39.5647 8.84787C39.776 8.84787 40.0109 8.67661 40.0109 8.46532V6.76578C42.3307 6.76087 45.4291 7.38748 47.9485 8.64836C48.0442 8.69622 48.1156 8.749 48.2104 8.79844L47.357 10.2898C47.2532 10.4738 47.3126 10.7071 47.4966 10.8111C47.5563 10.8446 47.6183 10.8605 47.682 10.8605C47.8154 10.8605 47.9437 10.7907 48.0142 10.6663L48.8619 9.16589C51.3303 10.5914 53.3869 12.555 54.9016 14.9115L53.4243 15.8002C53.2519 15.904 53.1703 16.1233 53.2582 16.3046C53.3256 16.4439 53.4626 16.5216 53.6034 16.5216C53.6705 16.5216 53.7384 16.5039 53.8002 16.4669L55.2995 15.5648C55.9168 16.6232 56.432 17.7517 56.8281 18.9415C57.3345 20.4627 57.6258 22.0196 57.7147 23.5783L55.9624 23.6417C55.7105 23.6484 55.5221 23.8577 55.6135 24.1347C55.6649 24.2901 55.815 24.3929 55.9786 24.3929H55.9828L57.7425 24.3546C57.7663 27.1077 57.1471 29.916 55.8915 32.4535Z" fill="white"/>
<path d="M39.8313 10.2493L38.9414 24.4724L31.3691 18.3212L38.4331 26.55C38.654 26.8072 38.9762 26.9553 39.3152 26.9553H39.6434C40.3141 26.9553 40.8458 26.3893 40.8036 25.7197L39.8313 10.2493Z" fill="white"/>
<path d="M18.8808 36.0867L18.8878 36.0585C18.8152 36.1754 18.7474 36.2941 18.6816 36.4136L18.6844 36.4134C18.7513 36.3039 18.8162 36.195 18.8808 36.0867Z" fill="white"/>
<path d="M17.3661 43.036C17.3596 42.83 17.3555 42.611 17.3557 42.3821L17.3052 42.3801L16.9619 43.7509C17.2111 43.6381 17.3782 43.4289 17.3661 43.036Z" fill="white"/>
<path d="M18.066 37.896L18.0362 37.8948C17.9242 38.2299 17.8318 38.5659 17.7549 38.8981L17.7592 38.8979C17.8489 38.5651 17.9379 38.2303 18.066 37.896Z" fill="white"/>
<path d="M16.7344 44.6555C16.7344 44.6555 16.7628 44.6467 16.8062 44.6229C16.7852 44.6221 16.7642 44.6213 16.7432 44.6204L16.7344 44.6555Z" fill="white"/>
<path d="M21.4531 49.4949L21.6687 49.6646L21.8045 49.6605L21.4531 49.4949Z" fill="white"/>
<path d="M22.6192 50.753C22.5384 50.6683 22.4593 50.5817 22.3828 50.4927C22.4756 50.6116 22.5606 50.7091 22.6192 50.753Z" fill="white"/>
<path d="M23.9767 51.8123C23.7974 51.7093 23.625 51.5957 23.457 51.4752C23.6369 51.6176 23.8188 51.7438 23.9767 51.8123Z" fill="white"/>
<path d="M64.9733 45.6075C65.5869 36.9807 55.4315 33.5595 55.4315 33.5595C53.862 29.1116 50.0959 27.1152 49.7586 26.9514C49.699 26.8953 49.7296 26.755 49.8177 26.7492L50.3001 26.6964C50.8951 26.657 51.3483 26.2756 51.4701 25.771C51.6958 24.8368 51.8786 23.253 51.1755 21.6451C50.9744 21.1854 50.4759 20.9013 49.9505 20.9362L46.3086 21.176C45.4942 21.2299 44.7061 21.4695 44.012 21.8752L40.692 23.8154C40.3866 23.994 40.211 24.3177 40.2361 24.6561C40.2361 24.6561 40.3016 25.5391 40.3018 25.542C40.3148 25.7337 38.5444 25.9509 38.3502 26.0368C37.518 26.4054 37.3498 27.703 38.4451 27.8443C38.9876 27.9143 39.3713 27.5676 39.7829 27.3034C40.2031 27.0336 40.6706 26.8033 41.1154 26.5691C42.1132 26.0439 43.1378 25.5656 44.1376 25.0437C44.3475 24.9343 44.4591 24.7247 44.4864 24.4997C44.53 24.1393 45.0553 24.0624 45.2084 24.3973C45.3153 24.6316 45.3239 24.9154 45.0803 25.2254L41.5888 27.023C41.4454 27.0968 41.4436 27.2873 41.5827 27.3679C43.0564 28.2215 44.3242 29.4316 45.2623 30.7978C46.6587 32.8316 47.805 35.5427 47.0674 38.0164C46.3545 40.4065 43.8347 42.1839 41.2092 42.1839C37.8003 42.1839 35.0368 39.4426 35.0368 36.0612C35.0368 34.673 35.5036 33.6199 36.2895 32.5946C36.8829 31.8201 36.2959 30.9775 35.2679 30.9775H24.13C22.5493 30.9775 20.5459 31.7099 20.5459 33.1687V34.1382C19.565 34.829 19.1771 35.6041 18.6835 36.4138L0 37.1697L18.0662 37.8963C17.9381 38.2306 17.849 38.5655 17.7595 38.898L2.27848 39.5223L17.5133 40.1361C17.448 40.5601 17.4086 40.9727 17.384 41.367L4.77805 41.8751L17.3546 42.3821C17.3544 42.611 17.3585 42.8299 17.365 43.0359C17.3962 44.0396 16.2644 43.8542 15.5568 43.8827C14.6053 43.9211 13.654 43.9594 12.7025 43.9978C10.7997 44.0745 8.89673 44.1512 6.99395 44.2279C10.2745 44.36 13.5549 44.492 16.8351 44.6244C16.3566 44.6068 16.6801 48.3349 16.7845 48.6605C16.9155 49.0703 17.0148 49.1351 17.4072 48.7586V48.728C17.9957 47.5903 19.6951 47.3991 21.1305 47.1838L21.1382 47.3341C21.1349 47.4695 21.1557 47.5572 21.1721 47.6918C21.1935 47.9627 21.261 48.2268 21.3234 48.4924C21.4409 48.8955 21.6018 49.2881 21.8037 49.6599L9.65753 50.0303L22.318 50.4162C22.4136 50.5337 22.5164 50.6439 22.6202 50.7528L12.1506 51.072L23.3684 51.414C23.563 51.5587 23.7657 51.6916 23.9762 51.8124L14.0889 52.1137L25.5733 52.4639C27.1812 52.884 28.9606 52.7141 30.4608 51.8393C31.2538 51.3771 31.8663 50.7838 32.3105 50.1951C32.9465 49.3521 33.354 48.2736 33.4601 47.2423C33.4827 47.023 33.488 46.9086 33.488 46.9086H33.4701C33.467 45.9824 33.4122 45.6724 33.3147 45.1734C38.1518 45.1732 43.4755 45.0753 48.2818 45.0749C48.2761 45.1843 48.2718 45.2453 48.271 45.3558C48.2704 45.4423 48.2771 45.5614 48.2794 45.5614C48.2988 46.3455 48.1327 46.9614 48.3377 47.6021C48.4687 48.0119 48.6008 48.0767 48.9931 47.7002V47.6757C49.3855 46.5409 51.1665 46.3526 52.6345 46.1392L52.6365 46.3534C52.6331 46.4888 52.651 46.5765 52.6673 46.711C52.6886 46.982 52.7546 47.246 52.8169 47.5117C52.9476 47.9603 53.133 48.3951 53.3694 48.8033C53.3694 48.8033 53.7924 49.5212 54.1357 49.8364C54.161 49.8563 54.1853 49.8759 54.2048 49.8951C54.2048 49.8951 54.7796 50.3746 55.2253 50.6893C55.3707 50.7822 55.5186 50.8719 55.671 50.9519C55.949 51.0265 56.3328 51.5682 57.8993 51.6659L58.1539 51.6737C59.4476 51.7908 60.7848 51.5395 61.9524 50.8588C62.7454 50.3965 63.3581 49.8033 63.8022 49.2145C64.4383 48.3715 64.846 47.359 64.9519 46.3277C64.9745 46.1082 64.9799 46.0597 64.9799 46.0597C64.9799 46.0597 64.9754 45.8302 64.9737 45.7492C64.9731 45.734 64.9717 45.6075 64.9733 45.6075ZM30.3088 48.1185C30.1599 48.572 29.9223 49.0423 29.5841 49.3964C28.9151 50.0968 27.926 50.4423 26.9403 50.4452C24.6775 50.4521 23.0441 48.9466 22.6441 46.9088H24.9196C24.9047 46.9088 24.8951 47.1795 24.8951 47.2688C24.8951 48.1542 25.6553 48.921 26.5929 48.921C27.5304 48.921 28.2907 48.1294 28.2907 47.2441C28.2907 47.1548 28.281 46.9088 28.2661 46.9088H30.5709C30.5699 47.094 30.3337 48.0429 30.3088 48.1185ZM61.8006 47.1052C61.6517 47.5587 61.4141 48.0455 61.0759 48.3996C60.4069 49.1 59.4177 49.5522 58.4321 49.5551C56.1511 49.562 54.508 47.9721 54.1249 45.9296C54.1249 45.9296 54.1235 45.7972 54.122 45.7972H56.2672C56.2561 45.7972 56.2484 46.0782 56.2484 46.1555C56.2484 47.0408 57.0084 47.8244 57.9462 47.8244C58.8837 47.8244 59.6439 47.0081 59.6439 46.1227C59.6439 46.0456 59.6363 45.7974 59.6251 45.7974H62.0407C62.15 45.7972 61.8296 47.0167 61.8006 47.1052Z" fill="white"/>
<path d="M23.9751 51.8131L14.0879 52.1144L25.2115 52.4536L25.0294 52.3104C24.5776 52.1494 24.3204 51.9634 23.9751 51.8131Z" fill="white"/>
<path d="M0 37.1701L18.0363 37.8956C18.2039 37.3945 18.4156 36.8958 18.6808 36.4142L0 37.1701Z" fill="white"/>
<path d="M15.556 43.8828C14.6045 43.9213 13.6532 43.9595 12.7017 43.998C10.7989 44.0747 8.89595 44.1514 6.99316 44.2281C10.2431 44.359 13.4929 44.4898 16.7425 44.6209L16.9603 43.751C16.5732 43.926 15.9866 43.8655 15.556 43.8828Z" fill="white"/>
<path d="M21.6686 49.6646L9.6582 50.0308L22.3187 50.4167C22.3399 50.4428 22.3627 50.4675 22.3846 50.493C22.2387 50.3059 22.0729 50.0654 21.956 49.8906L21.6686 49.6646Z" fill="white"/>
<path d="M12.1504 51.0719L23.3682 51.4138C23.3968 51.4352 23.427 51.4544 23.4563 51.4754C23.1078 51.2 22.7665 50.8624 22.6201 50.7527L12.1504 51.0719Z" fill="white"/>
<path d="M17.756 38.8976L2.2793 39.5216L17.5141 40.1355C17.4488 40.5595 17.4094 40.972 17.3848 41.3664L4.77887 41.8745L17.3052 42.3793L17.3899 42.041C17.4133 41.1749 17.4873 40.06 17.756 38.8976Z" fill="white"/>
<path d="M45.0762 51.2754L57.8974 51.6662C56.331 51.5687 55.9473 51.027 55.6691 50.9523L45.0762 51.2754Z" fill="white"/>
<path d="M40.627 49.1918L53.8972 49.5969V49.5855C53.8972 49.6709 54.0308 49.7556 54.1354 49.8371C53.7921 49.5218 53.3691 48.804 53.3691 48.804L40.627 49.1918Z" fill="white"/>
<path d="M43.1299 50.2339L55.0806 50.598C55.1277 50.6298 55.1765 50.6594 55.2244 50.69C54.7787 50.3755 54.2039 49.8959 54.2039 49.8959L43.1299 50.2339Z" fill="white"/>
</svg>
