<svg width="38" height="38" viewBox="0 0 38 38" fill="none" xmlns="http://www.w3.org/2000/svg">
<rect x="0.5" y="0.5" width="37" height="37" rx="18.5" stroke="#005338"/>
<path d="M19.0167 26.1083C17.075 26.1083 15.1333 25.8 13.2917 25.1833C12.5917 24.9417 12.0583 24.45 11.825 23.8083C11.5833 23.1667 11.6667 22.4583 12.05 21.825L13.0083 20.2333C13.2083 19.9 13.3917 19.2333 13.3917 18.8417V16.4333C13.3917 13.3333 15.9167 10.8083 19.0167 10.8083C22.1167 10.8083 24.6417 13.3333 24.6417 16.4333V18.8417C24.6417 19.225 24.825 19.9 25.025 20.2417L25.975 21.825C26.3333 22.425 26.4 23.15 26.1583 23.8083C25.9167 24.4667 25.3917 24.9667 24.7333 25.1833C22.9 25.8 20.9583 26.1083 19.0167 26.1083ZM19.0167 12.0583C16.6083 12.0583 14.6417 14.0167 14.6417 16.4333V18.8417C14.6417 19.45 14.3917 20.35 14.0833 20.875L13.125 22.4667C12.9417 22.775 12.8917 23.1 13 23.375C13.1 23.6583 13.35 23.875 13.6917 23.9917C17.175 25.1583 20.8667 25.1583 24.35 23.9917C24.65 23.8917 24.8833 23.6667 24.9917 23.3667C25.1 23.0667 25.075 22.7417 24.9083 22.4667L23.95 20.875C23.6333 20.3333 23.3917 19.4417 23.3917 18.8333V16.4333C23.3917 14.0167 21.4333 12.0583 19.0167 12.0583Z" fill="#0D7F61"/>
<path d="M20.5667 12.2833C20.5083 12.2833 20.45 12.275 20.3917 12.2583C20.15 12.1917 19.9167 12.1417 19.6917 12.1083C18.9833 12.0167 18.3 12.0667 17.6583 12.2583C17.425 12.3333 17.175 12.2583 17.0167 12.0833C16.8583 11.9083 16.8083 11.6583 16.9 11.4333C17.2417 10.5583 18.075 9.98333 19.025 9.98333C19.975 9.98333 20.8083 10.55 21.15 11.4333C21.2333 11.6583 21.1917 11.9083 21.0333 12.0833C20.9083 12.2167 20.7333 12.2833 20.5667 12.2833Z" fill="#0D7F61"/>
<path d="M19.0167 28.0083C18.1917 28.0083 17.3917 27.675 16.8083 27.0917C16.225 26.5083 15.8917 25.7083 15.8917 24.8833H17.1417C17.1417 25.375 17.3417 25.8583 17.6917 26.2083C18.0417 26.5583 18.525 26.7583 19.0167 26.7583C20.05 26.7583 20.8917 25.9167 20.8917 24.8833H22.1417C22.1417 26.6083 20.7417 28.0083 19.0167 28.0083Z" fill="#0D7F61"/>
</svg>
