<svg width="28" height="28" viewBox="0 0 28 28" fill="none" xmlns="http://www.w3.org/2000/svg">
<rect width="28" height="28" rx="14" fill="#EFF0FD"/>
<path d="M20.3109 15.4712L19.5192 14.1571C19.353 13.8642 19.2025 13.31 19.2025 12.9854V10.9825C19.2025 9.12208 18.11 7.51499 16.5346 6.76291C16.123 6.03458 15.363 5.58333 14.4921 5.58333C13.6292 5.58333 12.8534 6.05041 12.4417 6.78666C10.898 7.55458 9.8292 9.14583 9.8292 10.9825V12.9854C9.8292 13.31 9.67879 13.8642 9.51254 14.1492L8.71295 15.4712C8.39629 16.0017 8.32504 16.5875 8.52295 17.1258C8.71295 17.6562 9.1642 18.0679 9.75004 18.2658C11.2859 18.7883 12.9009 19.0417 14.5159 19.0417C16.1309 19.0417 17.7459 18.7883 19.2817 18.2737C19.8359 18.0917 20.2634 17.6721 20.4692 17.1258C20.675 16.5796 20.6196 15.9779 20.3109 15.4712Z" fill="#0D7F61"/>
<path d="M16.7405 19.8413C16.408 20.7596 15.5292 21.4167 14.5001 21.4167C13.8747 21.4167 13.2572 21.1633 12.8217 20.7121C12.5684 20.4746 12.3784 20.1579 12.2676 19.8333C12.3705 19.8492 12.4734 19.8571 12.5842 19.8729C12.7663 19.8967 12.9563 19.9204 13.1463 19.9363C13.5976 19.9758 14.0567 19.9996 14.5159 19.9996C14.9672 19.9996 15.4184 19.9758 15.8617 19.9363C16.028 19.9204 16.1942 19.9125 16.3526 19.8888C16.4792 19.8729 16.6059 19.8571 16.7405 19.8413Z" fill="#0D7F61"/>
</svg>
