<svg width="38" height="38" viewBox="0 0 38 38" fill="none" xmlns="http://www.w3.org/2000/svg">
<rect x="0.5" y="0.5" width="37" height="37" rx="18.5" stroke="#005338"/>
<path d="M19 20.0833C18.8917 20.0833 18.7834 20.0583 18.6834 20L11.325 15.7417C11.0334 15.5667 10.925 15.1833 11.1 14.8833C11.275 14.5833 11.6584 14.4833 11.9584 14.6583L19 18.7333L26 14.6833C26.3 14.5083 26.6834 14.6167 26.8584 14.9083C27.0334 15.2083 26.925 15.5917 26.6334 15.7667L19.325 20C19.2167 20.05 19.1084 20.0833 19 20.0833Z" fill="#005338"/>
<path d="M19 27.6333C18.6583 27.6333 18.375 27.35 18.375 27.0083V19.45C18.375 19.1083 18.6583 18.825 19 18.825C19.3417 18.825 19.625 19.1083 19.625 19.45V27.0083C19.625 27.35 19.3417 27.6333 19 27.6333Z" fill="#005338"/>
<path d="M19 27.9583C18.2666 27.9583 17.5416 27.8 16.9666 27.4833L12.5166 25.0083C11.3083 24.3417 10.3666 22.7333 10.3666 21.35V16.6417C10.3666 15.2583 11.3083 13.6583 12.5166 12.9833L16.9666 10.5167C18.1083 9.88333 19.8916 9.88333 21.0333 10.5167L25.4833 12.9917C26.6916 13.6583 27.6333 15.2667 27.6333 16.65V21.3583C27.6333 22.7417 26.6916 24.3417 25.4833 25.0167L21.0333 27.4833C20.4583 27.8 19.7333 27.9583 19 27.9583ZM19 11.2917C18.475 11.2917 17.9583 11.4 17.575 11.6083L13.125 14.0833C12.325 14.525 11.6166 15.725 11.6166 16.6417V21.35C11.6166 22.2667 12.325 23.4667 13.125 23.9167L17.575 26.3917C18.3333 26.8167 19.6666 26.8167 20.425 26.3917L24.875 23.9167C25.675 23.4667 26.3833 22.275 26.3833 21.35V16.6417C26.3833 15.725 25.675 14.525 24.875 14.075L20.425 11.6C20.0416 11.4 19.525 11.2917 19 11.2917Z" fill="#005338"/>
</svg>
