<svg width="13" height="10" viewBox="0 0 13 10" fill="none" xmlns="http://www.w3.org/2000/svg">
<path d="M12.2359 0.5H0.764113C0.342102 0.5 0 0.863375 0 1.31163V8.68837C0 9.13663 0.342102 9.5 0.764113 9.5H12.2359C12.6579 9.5 13 9.13663 13 8.68837V1.31163C13 0.863375 12.6579 0.5 12.2359 0.5ZM1.21621 2.97323C1.21621 2.65872 1.456 2.40403 1.75211 2.40403H3.653C3.94912 2.40403 4.18889 2.65872 4.18889 2.97323V4.08557C4.18889 4.4001 3.94912 4.65479 3.653 4.65479H1.75211C1.456 4.65479 1.21621 4.4001 1.21621 4.08557V2.97323ZM12.5118 8.42601H0.541667V6.84112H12.5118V8.42601Z" fill="#0D7F61"/>
</svg>
