<svg width="9" height="12" viewBox="0 0 9 12" fill="none" xmlns="http://www.w3.org/2000/svg">
<path d="M4.49999 11.5C3.68802 10.8417 2.9354 10.1201 2.24999 9.34259C1.22143 8.17498 5.65002e-07 6.4361 5.65002e-07 4.77909C-0.000445511 3.93284 0.263255 3.10549 0.75773 2.40173C1.2522 1.69798 1.95523 1.14947 2.77782 0.825602C3.60042 0.501739 4.50561 0.417088 5.37885 0.582363C6.25208 0.747637 7.0541 1.15541 7.68341 1.75407C8.10239 2.15051 8.43449 2.622 8.66048 3.14125C8.88647 3.66049 9.00186 4.21718 8.99998 4.77909C8.99998 6.4361 7.77855 8.17498 6.74998 9.34259C6.06457 10.1201 5.31195 10.8417 4.49999 11.5ZM4.49999 2.94611C3.9885 2.94611 3.49796 3.13923 3.13629 3.48298C2.77461 3.82673 2.57142 4.29295 2.57142 4.77909C2.57142 5.26522 2.77461 5.73145 3.13629 6.0752C3.49796 6.41895 3.9885 6.61206 4.49999 6.61206C5.01148 6.61206 5.50202 6.41895 5.86369 6.0752C6.22537 5.73145 6.42856 5.26522 6.42856 4.77909C6.42856 4.29295 6.22537 3.82673 5.86369 3.48298C5.50202 3.13923 5.01148 2.94611 4.49999 2.94611Z" fill="#0D7F61"/>
</svg>
