<svg width="20" height="20" viewBox="0 0 20 20" fill="none" xmlns="http://www.w3.org/2000/svg">
<rect width="20" height="20" rx="10" fill="#0D7F61"/>
<path d="M10.0009 15.2491C9.26415 14.6207 8.58122 13.9317 7.95927 13.1894C7.02594 12.0746 5.9176 10.4145 5.9176 8.83245C5.9172 8.02451 6.15648 7.23461 6.60517 6.56272C7.05387 5.89082 7.69179 5.36714 8.43823 5.05793C9.18466 4.74873 10.006 4.66791 10.7984 4.8257C11.5908 4.9835 12.3186 5.37281 12.8896 5.94437C13.2698 6.32287 13.5711 6.77301 13.7762 7.26875C13.9813 7.76449 14.086 8.29598 14.0843 8.83245C14.0843 10.4145 12.9759 12.0746 12.0426 13.1894C11.4207 13.9317 10.7377 14.6207 10.0009 15.2491ZM10.0009 7.08245C9.53681 7.08245 9.09169 7.26683 8.7635 7.59501C8.43531 7.9232 8.25094 8.36832 8.25094 8.83245C8.25094 9.29658 8.43531 9.7417 8.7635 10.0699C9.09169 10.3981 9.53681 10.5825 10.0009 10.5825C10.4651 10.5825 10.9102 10.3981 11.2384 10.0699C11.5666 9.7417 11.7509 9.29658 11.7509 8.83245C11.7509 8.36832 11.5666 7.9232 11.2384 7.59501C10.9102 7.26683 10.4651 7.08245 10.0009 7.08245Z" fill="white"/>
</svg>
