<svg width="25" height="24" viewBox="0 0 25 24" fill="none" xmlns="http://www.w3.org/2000/svg">
<path d="M14.6834 2H9.98338C8.94338 2 8.09338 2.84 8.09338 3.88V4.82C8.09338 5.86 8.93338 6.7 9.97338 6.7H14.6834C15.7234 6.7 16.5634 5.86 16.5634 4.82V3.88C16.5734 2.84 15.7234 2 14.6834 2Z" fill="#0D7F61"/>
<path d="M17.5734 4.81998C17.5734 6.40998 16.2734 7.70998 14.6834 7.70998H9.98335C8.39335 7.70998 7.09335 6.40998 7.09335 4.81998C7.09335 4.25998 6.49335 3.90998 5.99335 4.16998C4.58335 4.91998 3.62335 6.40998 3.62335 8.11998V17.53C3.62335 19.99 5.63335 22 8.09335 22H16.5734C19.0334 22 21.0434 19.99 21.0434 17.53V8.11998C21.0434 6.40998 20.0834 4.91998 18.6734 4.16998C18.1734 3.90998 17.5734 4.25998 17.5734 4.81998ZM12.7134 16.95H8.33335C7.92335 16.95 7.58335 16.61 7.58335 16.2C7.58335 15.79 7.92335 15.45 8.33335 15.45H12.7134C13.1234 15.45 13.4634 15.79 13.4634 16.2C13.4634 16.61 13.1234 16.95 12.7134 16.95ZM15.3334 12.95H8.33335C7.92335 12.95 7.58335 12.61 7.58335 12.2C7.58335 11.79 7.92335 11.45 8.33335 11.45H15.3334C15.7434 11.45 16.0834 11.79 16.0834 12.2C16.0834 12.61 15.7434 12.95 15.3334 12.95Z" fill="#0D7F61"/>
</svg>
