<svg width="14" height="14" viewBox="0 0 14 14" fill="none" xmlns="http://www.w3.org/2000/svg">
<path d="M11.6667 4.81234V10.4998C11.6667 12.2498 10.6225 12.8332 9.33337 12.8332H4.66671C3.37754 12.8332 2.33337 12.2498 2.33337 10.4998V4.81234C2.33337 2.9165 3.37754 2.479 4.66671 2.479C4.66671 2.84067 4.81253 3.16734 5.05169 3.4065C5.29086 3.64567 5.61754 3.7915 5.97921 3.7915H8.02087C8.74421 3.7915 9.33337 3.20234 9.33337 2.479C10.6225 2.479 11.6667 2.9165 11.6667 4.81234Z" stroke="#9F9F9F" stroke-linecap="round" stroke-linejoin="round"/>
<path d="M9.33329 2.479C9.33329 3.20234 8.74413 3.7915 8.02079 3.7915H5.97913C5.61746 3.7915 5.29078 3.64567 5.05161 3.4065C4.81244 3.16734 4.66663 2.84067 4.66663 2.479C4.66663 1.75567 5.25579 1.1665 5.97913 1.1665H8.02079C8.38246 1.1665 8.70914 1.31234 8.94831 1.55151C9.18747 1.79067 9.33329 2.11734 9.33329 2.479Z" stroke="#9F9F9F" stroke-linecap="round" stroke-linejoin="round"/>
<path d="M4.66663 7.5835H6.99996" stroke="#9F9F9F" stroke-linecap="round" stroke-linejoin="round"/>
<path d="M4.66663 9.9165H9.33329" stroke="#9F9F9F" stroke-linecap="round" stroke-linejoin="round"/>
</svg>
