<svg width="10" height="12" viewBox="0 0 10 12" fill="none" xmlns="http://www.w3.org/2000/svg">
<path d="M4.99999 11.5C4.18802 10.8417 3.4354 10.1201 2.74999 9.34259C1.72143 8.17498 0.500001 6.4361 0.500001 4.77909C0.499554 3.93284 0.763255 3.10549 1.25773 2.40173C1.7522 1.69798 2.45523 1.14947 3.27782 0.825602C4.10042 0.501739 5.00561 0.417088 5.87885 0.582363C6.75208 0.747637 7.5541 1.15541 8.18341 1.75407C8.60239 2.15051 8.93449 2.622 9.16048 3.14125C9.38647 3.66049 9.50186 4.21718 9.49998 4.77909C9.49998 6.4361 8.27855 8.17498 7.24998 9.34259C6.56457 10.1201 5.81195 10.8417 4.99999 11.5ZM4.99999 2.94611C4.4885 2.94611 3.99796 3.13923 3.63629 3.48298C3.27461 3.82673 3.07142 4.29295 3.07142 4.77909C3.07142 5.26522 3.27461 5.73145 3.63629 6.0752C3.99796 6.41895 4.4885 6.61206 4.99999 6.61206C5.51148 6.61206 6.00202 6.41895 6.36369 6.0752C6.72537 5.73145 6.92856 5.26522 6.92856 4.77909C6.92856 4.29295 6.72537 3.82673 6.36369 3.48298C6.00202 3.13923 5.51148 2.94611 4.99999 2.94611Z" fill="#9F9F9F"/>
</svg>
