<svg width="28" height="28" viewBox="0 0 28 28" fill="none" xmlns="http://www.w3.org/2000/svg">
<rect width="28" height="28" rx="14" fill="#EFF0FD"/>
<path d="M18.0003 11.3332H17.3337V9.99984C17.3337 8.15984 15.8403 6.6665 14.0003 6.6665C12.1603 6.6665 10.667 8.15984 10.667 9.99984V11.3332H10.0003C9.26699 11.3332 8.66699 11.9332 8.66699 12.6665V19.3332C8.66699 20.0665 9.26699 20.6665 10.0003 20.6665H18.0003C18.7337 20.6665 19.3337 20.0665 19.3337 19.3332V12.6665C19.3337 11.9332 18.7337 11.3332 18.0003 11.3332ZM14.0003 17.3332C13.267 17.3332 12.667 16.7332 12.667 15.9998C12.667 15.2665 13.267 14.6665 14.0003 14.6665C14.7337 14.6665 15.3337 15.2665 15.3337 15.9998C15.3337 16.7332 14.7337 17.3332 14.0003 17.3332ZM16.067 11.3332H11.9337V9.99984C11.9337 8.85984 12.8603 7.93317 14.0003 7.93317C15.1403 7.93317 16.067 8.85984 16.067 9.99984V11.3332Z" fill="#0D7F61"/>
</svg>
