<svg width="28" height="28" viewBox="0 0 28 28" fill="none" xmlns="http://www.w3.org/2000/svg">
<path d="M0 14C0 6.26801 6.26801 0 14 0C21.732 0 28 6.26801 28 14C28 21.732 21.732 28 14 28C6.26801 28 0 21.732 0 14Z" fill="#EFF0FD"/>
<path d="M21.1183 8H7.88167C7.39473 8 7 8.44412 7 8.99199V18.008C7 18.5559 7.39473 19 7.88167 19H21.1183C21.6053 19 22 18.5559 22 18.008V8.99199C22 8.44412 21.6053 8 21.1183 8ZM8.40332 11.0228C8.40332 10.6384 8.68 10.3271 9.02167 10.3271H11.215C11.5567 10.3271 11.8333 10.6384 11.8333 11.0228V12.3824C11.8333 12.7668 11.5567 13.0781 11.215 13.0781H9.02167C8.68 13.0781 8.40332 12.7668 8.40332 12.3824V11.0228ZM21.4367 17.6873H7.625V15.7503H21.4367V17.6873Z" fill="#0D7F61"/>
</svg>
