<svg width="31" height="31" viewBox="0 0 31 31" fill="none" xmlns="http://www.w3.org/2000/svg">
<path d="M29.96 19.0242L28.9693 16.4855C28.6494 15.6656 27.7219 15.2591 26.9014 15.579C26.5043 15.734 26.1914 16.0346 26.02 16.4247C25.8487 16.8153 25.8399 17.2493 25.9949 17.6464L26.9856 20.1851C27.1406 20.5822 27.4412 20.8951 27.8313 21.0664C28.0371 21.1565 28.2541 21.2015 28.4722 21.2015C28.6681 21.2015 28.8646 21.1653 29.053 21.0916C29.8729 20.7717 30.2799 19.8441 29.96 19.0242Z" fill="#31BB96"/>
<path d="M26.2677 9.67048C26.5952 9.67048 26.9216 9.59387 27.2233 9.44299C27.735 9.18742 28.1164 8.74763 28.2971 8.20491C28.4778 7.66219 28.4368 7.08204 28.1807 6.57032C27.9251 6.0586 27.4853 5.67729 26.9426 5.49658C25.8227 5.12346 24.6074 5.73051 24.2343 6.85104C24.053 7.39317 24.0945 7.9739 24.3501 8.48563C24.6062 8.99735 25.046 9.37865 25.5881 9.55937C25.811 9.63364 26.0396 9.67048 26.2677 9.67048ZM26.2671 5.85449C26.442 5.85449 26.6198 5.88198 26.7946 5.94046C27.2186 6.08141 27.5625 6.37967 27.7625 6.77969C27.9269 7.10895 27.9777 7.47446 27.9117 7.83004L24.7682 6.78203C25.0536 6.20831 25.6414 5.85449 26.2671 5.85449Z" fill="#31BB96"/>
<path d="M28.1344 12.7056C28.1344 11.9758 27.5402 11.3816 26.8104 11.3816C26.0805 11.3816 25.4863 11.9758 25.4863 12.7056C25.4863 13.4355 26.0805 14.0297 26.8104 14.0297C27.5402 14.0297 28.1344 13.4355 28.1344 12.7056ZM25.9542 12.7056C25.9542 12.2337 26.3384 11.8495 26.8104 11.8495C27.2823 11.8495 27.6666 12.2337 27.6666 12.7056C27.6666 13.1776 27.2823 13.5618 26.8104 13.5618C26.3384 13.5618 25.9542 13.1776 25.9542 12.7056Z" fill="#31BB96"/>
<path d="M22.0582 3.9333L24.7554 4.31753C24.832 4.32864 24.9075 4.3339 24.9818 4.3339C25.7631 4.3339 26.4479 3.75785 26.5614 2.96248C26.6854 2.09109 26.0777 1.28111 25.2057 1.15713L22.5085 0.772896C21.6371 0.648328 20.8272 1.25655 20.7026 2.12794C20.6429 2.55018 20.7505 2.97009 21.0067 3.31163C21.2623 3.65258 21.636 3.87306 22.0582 3.9333Z" fill="#31BB96"/>
<path d="M23.127 15.3063C22.5843 15.1256 22.0035 15.1671 21.4924 15.4227C20.4362 15.9508 20.0063 17.2398 20.5344 18.2954C20.7906 18.8071 21.2298 19.1884 21.7725 19.3691C21.9953 19.4434 22.224 19.4802 22.4521 19.4802C22.7796 19.4802 23.1059 19.4042 23.4077 19.2533C23.9188 18.9972 24.3001 18.558 24.4814 18.0152C24.6621 17.4725 24.6212 16.8918 24.365 16.3801C24.1095 15.8689 23.6697 15.487 23.127 15.3063ZM24.0375 17.8673C23.896 18.2913 23.5978 18.6346 23.1983 18.8346C22.4439 19.2118 21.538 18.9638 21.0725 18.2884L24.0364 16.8058C24.1522 17.1485 24.1539 17.5181 24.0375 17.8673Z" fill="#31BB96"/>
<path d="M23.1069 11.5179C22.9683 11.115 22.6806 10.7898 22.2975 10.6027C21.9139 10.4161 21.4811 10.3892 21.0776 10.5284L18.5014 11.4156C17.6692 11.7021 17.2253 12.6121 17.5119 13.4443C17.6505 13.8479 17.9382 14.173 18.3213 14.3596C18.5429 14.4678 18.7804 14.5222 19.0196 14.5222C19.195 14.5222 19.3705 14.4929 19.5407 14.4344L22.1174 13.5473C22.9496 13.2607 23.3936 12.3501 23.1069 11.5179ZM21.1185 13.3958C21.2267 12.8671 21.1133 12.4226 21.046 12.2279C20.891 11.7776 20.6232 11.467 20.3822 11.2623L21.2302 10.9705C21.3507 10.929 21.4747 10.9085 21.5987 10.9085C21.7677 10.9085 21.9361 10.9471 22.0923 11.0232C22.363 11.1553 22.5666 11.3852 22.6648 11.67C22.8672 12.2583 22.5531 12.9022 21.9648 13.1045L21.1185 13.3958Z" fill="#31BB96"/>
<path d="M18.1299 7.25578C18.1299 8.13653 18.8463 8.85235 19.7265 8.85235C20.6066 8.85235 21.3224 8.13653 21.3224 7.25578C21.3224 6.37562 20.6066 5.65979 19.7265 5.65979C18.8463 5.65979 18.1299 6.37562 18.1299 7.25578ZM19.7265 6.12765C20.3487 6.12765 20.8546 6.63353 20.8546 7.25578C20.8546 7.87803 20.3487 8.38449 19.7265 8.38449C19.1042 8.38449 18.5977 7.87803 18.5977 7.25578C18.5977 6.63353 19.1041 6.12765 19.7265 6.12765Z" fill="#31BB96"/>
<path d="M18.091 3.71345C18.5425 3.71345 18.9086 3.34734 18.9086 2.89586C18.9086 2.44437 18.5425 2.07886 18.091 2.07886C17.6395 2.07886 17.2734 2.44437 17.2734 2.89586C17.2734 3.34734 17.6395 3.71345 18.091 3.71345Z" fill="#31BB96"/>
<path d="M15.9043 14.9332C13.975 13.0039 11.7141 12.2424 10.7567 13.1992L9.98591 13.97C9.52624 14.4297 9.47711 15.1455 9.8362 15.6613L1.70068 23.7968C0.228678 25.2688 0.228678 27.6649 1.70068 29.1369C2.41417 29.8504 3.36217 30.2434 4.371 30.2434C5.37982 30.2434 6.32783 29.8504 7.04131 29.1369L15.1762 21.0019C15.3967 21.1558 15.6576 21.2394 15.9318 21.2394C16.2857 21.2394 16.6178 21.1019 16.8681 20.8516L17.6389 20.0814C18.1179 19.6019 18.184 18.7872 17.8237 17.7872C17.4851 16.8456 16.8032 15.8321 15.9043 14.9332ZM17.3079 19.7504L16.5371 20.5212C16.3751 20.6826 16.1605 20.7715 15.9318 20.7715C15.771 20.7715 15.6178 20.7271 15.4839 20.6446C15.9611 19.8183 15.3499 18.2322 13.9779 16.8602C12.6059 15.4882 11.0193 14.8765 10.1935 15.3537C10.1111 15.2204 10.066 15.0671 10.066 14.9063C10.066 14.6776 10.1549 14.4624 10.3169 14.301L11.0877 13.5302C11.8334 12.784 13.8879 13.5782 15.5739 15.2642C16.4248 16.1151 17.0676 17.0678 17.384 17.9456C17.6746 18.7533 17.6471 19.4112 17.3079 19.7504Z" fill="#31BB96"/>
<path d="M14.2409 10.4296C14.3461 10.4506 14.4508 10.4612 14.5543 10.4612C15.2994 10.4612 15.9679 9.93541 16.1193 9.17748L16.6539 6.50541C16.8264 5.64221 16.2644 4.79947 15.4012 4.62695C14.983 4.54332 14.5578 4.62753 14.2028 4.86439C13.8479 5.10066 13.6063 5.4615 13.5227 5.87965L12.9882 8.55113C12.8156 9.41433 13.3777 10.2571 14.2409 10.4296ZM13.4473 8.64295L13.694 7.40955C13.9134 7.28908 14.3455 7.11597 14.8818 7.22358C15.0766 7.26218 15.5503 7.40078 15.907 7.85226L15.6602 9.08566C15.5386 9.69564 14.9427 10.0927 14.3327 9.97109C13.7221 9.84886 13.325 9.25351 13.4473 8.64295Z" fill="#31BB96"/>
<path d="M11.5849 10.0142C11.9042 9.69487 11.9042 9.1772 11.5849 8.85792C11.2656 8.53864 10.748 8.53864 10.4287 8.85792C10.1094 9.1772 10.1094 9.69487 10.4287 10.0142C10.748 10.3334 11.2656 10.3334 11.5849 10.0142Z" fill="#31BB96"/>
</svg>
