<svg width="28" height="28" viewBox="0 0 28 28" fill="none" xmlns="http://www.w3.org/2000/svg">
<rect width="28" height="28" rx="14" fill="#EFF0FD"/>
<path d="M14 6C12.502 6.00291 11.0347 6.42556 9.76469 7.22001C8.49467 8.01446 7.47269 9.14891 6.81468 10.4947C6.15666 11.8405 5.88894 13.3437 6.04189 14.8339C6.19484 16.3241 6.76232 17.7416 7.67999 18.9257L7.21142 21.0286C7.18852 21.128 7.19348 21.2318 7.22574 21.3286C7.258 21.4253 7.31631 21.5113 7.39427 21.5771C7.47051 21.6457 7.56379 21.6925 7.66432 21.7126C7.76486 21.7327 7.86896 21.7254 7.9657 21.6914L10.0571 20.96C11.2574 21.6466 12.6172 22.0053 14 22C16.1217 22 18.1565 21.1571 19.6568 19.6568C21.1571 18.1566 22 16.1217 22 14C22 11.8783 21.1571 9.84343 19.6568 8.34314C18.1565 6.84285 16.1217 6 14 6ZM14.3771 17.0743C14.2686 17.1759 14.1258 17.2331 13.9771 17.2343C13.8242 17.2374 13.6763 17.1799 13.5657 17.0743C13.4587 16.9637 13.3975 16.8167 13.3943 16.6629C13.3976 16.5124 13.459 16.369 13.5657 16.2629C13.6762 16.1609 13.8211 16.1043 13.9714 16.1043C14.1218 16.1043 14.2666 16.1609 14.3771 16.2629C14.4257 16.3166 14.4644 16.3785 14.4914 16.4457C14.5229 16.5137 14.5385 16.5879 14.5371 16.6628C14.5381 16.8153 14.4809 16.9625 14.3771 17.0743ZM15.3486 14.2057L15.2 14.3314C15.0286 14.4914 14.5486 14.9143 14.5371 15.0857C14.5324 15.2347 14.4703 15.3761 14.3639 15.4804C14.2574 15.5848 14.1148 15.644 13.9657 15.6457H13.9543C13.8058 15.6455 13.6635 15.5864 13.5586 15.4814C13.4536 15.3764 13.3945 15.2342 13.3943 15.0857C13.3943 14.4114 13.9771 13.8971 14.4457 13.4743L14.5828 13.36C14.6614 13.2803 14.7231 13.1856 14.7643 13.0815C14.8056 12.9775 14.8255 12.8662 14.8228 12.7543C14.8228 12.6423 14.8005 12.5314 14.7572 12.4281C14.714 12.3248 14.6507 12.231 14.5709 12.1524C14.4912 12.0737 14.3966 12.0117 14.2928 11.9698C14.1889 11.928 14.0777 11.9071 13.9657 11.9086C13.7837 11.9103 13.6069 11.97 13.461 12.0789C13.3151 12.1878 13.2077 12.3403 13.1543 12.5143C13.1089 12.6603 13.0081 12.7828 12.8735 12.8554C12.7389 12.9281 12.5813 12.9451 12.4343 12.9029C12.2893 12.8566 12.1685 12.7551 12.0979 12.6203C12.0273 12.4855 12.0126 12.3283 12.0571 12.1829C12.196 11.7253 12.4944 11.3328 12.8982 11.0765C13.3019 10.8203 13.7842 10.7175 14.2573 10.7867C14.7304 10.8558 15.1631 11.0924 15.4766 11.4535C15.7901 11.8146 15.9636 12.2761 15.9657 12.7543C15.9692 13.0258 15.9162 13.2951 15.8099 13.545C15.7037 13.7949 15.5466 14.0199 15.3486 14.2057Z" fill="#0D7F61"/>
</svg>
