<svg width="19" height="17" viewBox="0 0 19 17" fill="none" xmlns="http://www.w3.org/2000/svg">
<path fill-rule="evenodd" clip-rule="evenodd" d="M18.7556 16.1074C18.6046 16.3781 18.3846 16.6035 18.1181 16.7603C17.8516 16.9172 17.5483 17 17.2393 17H1.77684C1.4649 16.9998 1.15848 16.9173 0.888377 16.7605C0.618272 16.6038 0.393987 16.3784 0.23805 16.1071C0.0821131 15.8357 1.4216e-05 15.528 1.84604e-09 15.2147C-1.42123e-05 14.9014 0.0820566 14.5936 0.237969 14.3222L7.95723 0.892773C8.11322 0.621341 8.33762 0.395938 8.60785 0.239221C8.87808 0.0825052 9.18463 0 9.49668 0C9.80873 0 10.1153 0.0825052 10.3855 0.239221C10.6557 0.395938 10.8801 0.621341 11.0361 0.892773L18.7556 14.3222C18.9156 14.5922 19 14.9005 19 15.2147C19 15.5289 18.9156 15.8374 18.7556 16.1074ZM9.50533 14.3153C9.63373 14.3153 9.75687 14.264 9.84766 14.1729C9.93846 14.0817 9.98946 13.958 9.98946 13.829C9.98946 13.7001 9.93846 13.5764 9.84766 13.4852C9.75687 13.394 9.63373 13.3428 9.50533 13.3428H9.48804C9.35963 13.3428 9.23649 13.394 9.1457 13.4852C9.0549 13.5764 9.00389 13.7001 9.00389 13.829C9.00389 13.958 9.0549 14.0817 9.1457 14.1729C9.23649 14.264 9.35963 14.3153 9.48804 14.3153H9.50533ZM9.50533 12.6841H9.4878C9.18545 12.6841 8.89548 12.8047 8.68168 13.0194C8.46788 13.2341 8.34777 13.5254 8.34777 13.829C8.34777 14.1327 8.46788 14.4239 8.68168 14.6387C8.89548 14.8534 9.18545 14.974 9.4878 14.974H9.50509C9.80751 14.974 10.0975 14.8534 10.3114 14.6386C10.5252 14.4238 10.6454 14.1325 10.6454 13.8288C10.6454 13.5251 10.5252 13.2338 10.3114 13.019C10.0975 12.8042 9.80751 12.6836 9.50509 12.6836L9.50533 12.6841ZM9.98946 10.6574V5.06192C9.99088 4.996 9.97918 4.93045 9.95504 4.86913C9.9309 4.8078 9.89482 4.75194 9.84889 4.70481C9.80297 4.65768 9.74814 4.62024 9.68762 4.59468C9.6271 4.56911 9.56211 4.55594 9.49645 4.55594C9.43079 4.55594 9.3658 4.56911 9.30528 4.59468C9.24475 4.62024 9.18993 4.65768 9.144 4.70481C9.09808 4.75194 9.06199 4.8078 9.03786 4.86913C9.01372 4.93045 9.00201 4.996 9.00343 5.06192V10.6682C9.00201 10.7342 9.01372 10.7997 9.03786 10.861C9.06199 10.9224 9.09808 10.9782 9.144 11.0254C9.18993 11.0725 9.24475 11.1099 9.30528 11.1355C9.3658 11.1611 9.43079 11.1742 9.49645 11.1742C9.56211 11.1742 9.6271 11.1611 9.68762 11.1355C9.74814 11.1099 9.80297 11.0725 9.84889 11.0254C9.89482 10.9782 9.9309 10.9224 9.95504 10.861C9.97918 10.7997 9.99088 10.7342 9.98946 10.6682V10.6574ZM9.49656 3.91949C9.19184 3.91961 8.89963 4.04123 8.68413 4.25761C8.46864 4.474 8.34749 4.76745 8.34731 5.0735V10.6569C8.34737 10.963 8.46846 11.2566 8.68397 11.4731C8.89948 11.6896 9.19176 11.8112 9.49656 11.8114C9.80111 11.811 10.0931 11.6893 10.3084 11.473C10.5237 11.2567 10.6448 10.9635 10.6451 10.6576V5.0735C10.6448 4.76778 10.5236 4.47469 10.3084 4.25855C10.0931 4.04242 9.8012 3.92089 9.49679 3.92065L9.49656 3.91949Z" fill="#0D7F61"/>
</svg>
