<svg width="31" height="29" viewBox="0 0 31 29" fill="none" xmlns="http://www.w3.org/2000/svg">
<path d="M27.0459 17.0726H29.8428L29.7789 16.3218H27.1061L27.0459 17.0726Z" fill="#FF820D"/>
<path d="M23.8144 14.5189C24.0816 14.7918 24.4389 14.9421 24.8205 14.9421H26.0596C26.3568 14.9421 26.643 15.0674 26.8447 15.2859C26.9855 15.4385 27.0764 15.6288 27.1111 15.8305H29.7374L28.4857 1.11833C28.4372 0.548147 28.0327 0.244536 27.6704 0.150559C27.5812 0.127464 27.4837 0.114136 27.3827 0.114136C27.0695 0.114136 26.7214 0.24214 26.4777 0.604226C25.8066 1.60148 25.2697 2.67011 24.836 3.87117C23.9407 6.35135 23.5016 9.3218 23.4124 13.5028C23.4043 13.8848 23.5471 14.2457 23.8144 14.5189Z" fill="#FF820D"/>
<path d="M26.9424 18.367H29.9531L29.8848 17.5641H27.0068L26.9424 18.367Z" fill="#FF820D"/>
<path d="M26.6341 16.0565C26.6471 15.8941 26.5934 15.7388 26.4829 15.619C26.3724 15.4993 26.2219 15.4334 26.0589 15.4334H24.9316C24.2674 19.7917 20.4886 23.0513 16.0521 23.0513C11.099 23.0513 7.06942 19.0217 7.06942 14.0686C7.06942 9.11557 11.099 5.08601 16.0521 5.08601C18.9054 5.08601 21.5457 6.41876 23.2399 8.68119C23.3839 7.5259 23.5764 6.47932 23.822 5.51142C21.6909 3.57483 18.9378 2.5094 16.0521 2.5094C13.1337 2.5094 10.3541 3.5975 8.21329 5.57432C8.19167 6.11564 8.12577 6.63447 7.99487 7.09072C7.75594 7.92355 7.243 8.70595 6.47037 9.41611C5.91535 9.92617 5.63355 10.679 5.71641 11.4299L6.76759 20.9543C8.94256 23.8816 12.408 25.6278 16.052 25.6278C20.445 25.6278 24.3963 23.1937 26.3762 19.2723L26.6341 16.0565Z" fill="#FF820D"/>
<path d="M30.6463 26.5141L29.995 18.8583H26.903L26.2885 26.5247C26.2392 27.1401 26.4426 27.7288 26.8613 28.1823C27.28 28.6359 27.8505 28.8857 28.4679 28.8857C29.0872 28.8857 29.6591 28.6345 30.0781 28.1783C30.497 27.7223 30.6988 27.1312 30.6463 26.5141Z" fill="#FF820D"/>
<path d="M16.0528 5.57739C11.3707 5.57739 7.56152 9.38657 7.56152 14.0686C7.56152 18.7508 11.3707 22.5599 16.0528 22.5599C20.2343 22.5599 23.7974 19.497 24.4407 15.3957C24.0715 15.3212 23.7333 15.1383 23.4634 14.8626C23.1028 14.4942 22.9103 14.0075 22.9213 13.4922C22.9533 11.9917 23.0304 10.6447 23.1569 9.41728C21.5792 7.01161 18.9305 5.57739 16.0528 5.57739Z" fill="#FF820D"/>
<path d="M5.22853 11.4838C5.12859 10.5781 5.46875 9.6699 6.13838 9.05433C6.84357 8.4062 7.30946 7.69996 7.52309 6.95521C8.03652 5.16536 7.48028 2.28133 7.21733 1.12443C7.16635 0.900181 6.97305 0.732682 6.75782 0.726232C6.61895 0.722792 6.48849 0.775616 6.39285 0.876902C6.29857 0.976897 6.25146 1.1127 6.26356 1.24949L6.61213 5.1903C6.6367 5.46848 6.54549 5.74857 6.36171 5.95857C6.18273 6.16317 5.9371 6.28245 5.67009 6.29455C5.39596 6.30751 5.13572 6.20954 4.93775 6.02024C4.73966 5.83093 4.63058 5.57579 4.63058 5.30184V1.17302C4.63058 0.93728 4.45694 0.741404 4.23532 0.726969C4.11598 0.71966 4.00309 0.759585 3.91673 0.840662C3.83024 0.921679 3.78258 1.03156 3.78258 1.15005V5.2785C3.78258 5.82191 3.36828 6.26808 2.83944 6.29437C2.55161 6.30874 2.27208 6.19812 2.07282 5.99094C1.87344 5.78376 1.77363 5.50073 1.799 5.21431L2.14776 1.27166C2.17141 1.00429 1.98493 0.761304 1.73211 0.729979C1.71166 0.727399 1.69127 0.726171 1.67118 0.726171C1.44828 0.726171 1.25222 0.878253 1.20154 1.09974C0.936076 2.2613 0.374305 5.15725 0.890132 6.95533C1.10382 7.70014 1.56971 8.40638 2.27484 9.05439C2.94453 9.6699 3.28463 10.5782 3.18469 11.4839L1.58691 25.9611C1.50479 26.7049 1.74409 27.4513 2.24339 28.0088C2.7427 28.5662 3.45827 28.8859 4.20658 28.8859C4.95495 28.8859 5.67052 28.5662 6.16983 28.0087C6.66913 27.4513 6.90843 26.7049 6.82631 25.9611L5.22853 11.4838Z" fill="#FF820D"/>
</svg>
