<svg width="28" height="28" viewBox="0 0 28 28" fill="none" xmlns="http://www.w3.org/2000/svg">
<rect width="28" height="28" rx="14" fill="#EFF0FD"/>
<path d="M20.3104 15.4713L19.5187 14.1571C19.3525 13.8642 19.202 13.31 19.202 12.9854V10.9825C19.202 9.12209 18.1095 7.51501 16.5341 6.76293C16.1225 6.03459 15.3625 5.58334 14.4916 5.58334C13.6287 5.58334 12.8529 6.05043 12.4412 6.78668C10.8975 7.55459 9.82871 9.14584 9.82871 10.9825V12.9854C9.82871 13.31 9.6783 13.8642 9.51205 14.1492L8.71246 15.4713C8.3958 16.0017 8.32455 16.5875 8.52246 17.1258C8.71246 17.6563 9.16371 18.0679 9.74955 18.2658C11.2854 18.7883 12.9004 19.0417 14.5154 19.0417C16.1304 19.0417 17.7454 18.7883 19.2812 18.2738C19.8354 18.0917 20.2629 17.6721 20.4687 17.1258C20.6745 16.5796 20.6191 15.9779 20.3104 15.4713Z" fill="#0D7F61"/>
<path d="M16.7405 19.8413C16.408 20.7596 15.5292 21.4167 14.5001 21.4167C13.8747 21.4167 13.2572 21.1633 12.8217 20.7121C12.5684 20.4746 12.3784 20.1579 12.2676 19.8333C12.3705 19.8492 12.4734 19.8571 12.5842 19.8729C12.7663 19.8967 12.9563 19.9204 13.1463 19.9363C13.5976 19.9758 14.0567 19.9996 14.5159 19.9996C14.9672 19.9996 15.4184 19.9758 15.8617 19.9363C16.028 19.9204 16.1942 19.9125 16.3526 19.8888C16.4792 19.8729 16.6059 19.8571 16.7405 19.8413Z" fill="#0D7F61"/>
</svg>
