<svg width="28" height="28" viewBox="0 0 28 28" fill="none" xmlns="http://www.w3.org/2000/svg">
<rect width="28" height="28" rx="14" fill="#EFF0FD"/>
<path d="M18.5509 10.4179C16.6401 10.4101 14.896 9.87101 13.499 8.85532C12.114 9.88351 10.4578 10.4085 8.57434 10.4179C8.51524 12.8525 8.91073 18.431 13.5308 20.378C13.5518 20.3858 13.5749 20.3858 13.5959 20.378C18.216 18.431 18.61 12.8525 18.5509 10.4179ZM14.3157 14.4307V16.3183C14.3157 16.5243 14.2364 16.7218 14.0951 16.8675C13.9539 17.0131 13.7623 17.0949 13.5626 17.0949C13.3629 17.0949 13.1713 17.0131 13.0301 16.8675C12.8889 16.7218 12.8095 16.5243 12.8095 16.3183V14.4307C12.5731 14.2647 12.3945 14.0249 12.2999 13.7465C12.2053 13.4681 12.1997 13.1658 12.284 12.8839C12.3682 12.602 12.5378 12.3554 12.7679 12.1802C12.9981 12.005 13.2766 11.9104 13.5626 11.9104C13.8487 11.9104 14.1272 12.005 14.3573 12.1802C14.5874 12.3554 14.757 12.602 14.8413 12.8839C14.9255 13.1658 14.9199 13.4681 14.8253 13.7465C14.7307 14.0249 14.5521 14.2647 14.3157 14.4307Z" fill="#0D7F61"/>
<path d="M20.0738 9.45349C20.0571 9.25863 19.9673 9.07818 19.8235 8.95062C19.6797 8.82305 19.4933 8.75847 19.304 8.77063C17.1735 8.93001 15.3279 8.37998 13.9612 7.17833C13.8305 7.06272 13.6638 6.99943 13.4916 7C13.3194 7.00058 13.1532 7.06498 13.0232 7.18146C11.6595 8.39248 9.9078 8.92845 7.82128 8.77219C7.63184 8.75841 7.44478 8.82222 7.30068 8.94976C7.15657 9.07731 7.06704 9.25831 7.05152 9.45349C7.02424 9.80195 7 10.277 7 10.8395C7 13.9304 7.73945 19.687 12.9368 21.8762C13.3384 22.0429 13.7869 22.0429 14.1884 21.8762C20.3344 19.2856 20.2465 11.7132 20.0738 9.45349ZM13.6808 20.5949C13.605 20.6262 13.5203 20.6262 13.4444 20.5949C8.61831 18.5604 8.27434 12.7146 8.35162 10.2957C8.35253 10.2654 8.36494 10.2366 8.38618 10.2156C8.40743 10.1945 8.43582 10.1829 8.46527 10.1832H8.52739C10.4109 10.1832 12.061 9.65506 13.4308 8.61593C13.4502 8.60147 13.4735 8.59368 13.4975 8.59368C13.5214 8.59368 13.5448 8.60147 13.5642 8.61593C14.943 9.641 16.6795 10.1832 18.5873 10.1832H18.66C18.6895 10.1829 18.7178 10.1945 18.7391 10.2156C18.7603 10.2366 18.7727 10.2654 18.7737 10.2957C18.8508 12.7148 18.507 18.5605 13.6808 20.5949Z" fill="#0D7F61"/>
</svg>
