<svg width="28" height="33" viewBox="0 0 28 33" fill="none" xmlns="http://www.w3.org/2000/svg">
<path d="M24.4236 29.4345L27.7603 32.2031L25.7463 8.71436H21.6703V31.9327L23.6592 29.5098C23.8489 29.2786 24.1924 29.2448 24.4247 29.4345H24.4236ZM20.5787 8.71436H3.24325L0.240234 32.9075H20.5787V8.71436ZM7.75977 12.7456C7.75977 13.0466 7.51552 13.2909 7.21456 13.2909C6.91361 13.2909 6.66935 13.0466 6.66935 12.7456V5.48017C6.66935 4.00156 7.27562 2.6538 8.25155 1.67679L8.25482 1.67352C9.23184 0.698681 10.5785 0.0924072 12.0571 0.0924072C13.5401 0.0924072 14.8878 0.698681 15.8638 1.67461L15.8932 1.70732C16.8528 2.68215 17.446 4.01683 17.446 5.48126V12.7467C17.446 13.0477 17.2017 13.2919 16.9008 13.2919C16.5998 13.2919 16.3556 13.0477 16.3556 12.7467V5.48126C16.3556 4.31233 15.8834 3.24808 15.1201 2.47279L15.0928 2.44662C14.3132 1.66697 13.2391 1.18392 12.0582 1.18392C10.8751 1.18392 9.80104 1.66697 9.02357 2.44444C8.24392 3.22409 7.76086 4.29925 7.76086 5.48126V12.7467L7.75977 12.7456Z" fill="#8D02A4"/>
</svg>
