<svg width="28" height="28" viewBox="0 0 28 28" fill="none" xmlns="http://www.w3.org/2000/svg">
<rect width="28" height="28" rx="14" fill="#EFF0FD"/>
<path d="M19.5682 11.9383C18.2114 11.9383 17.6567 10.9891 18.3313 9.82473C18.7211 9.14986 18.4888 8.28959 17.8066 7.90395L16.5097 7.16976C15.9175 6.8212 15.1529 7.02885 14.8006 7.61472L14.7181 7.75563C14.0435 8.91996 12.934 8.91996 12.2519 7.75563L12.1694 7.61472C11.8321 7.02885 11.0675 6.8212 10.4753 7.16976L9.17841 7.90395C8.49625 8.28959 8.26387 9.15728 8.65367 9.83214C9.33583 10.9891 8.78111 11.9383 7.42429 11.9383C6.64468 11.9383 6 12.5687 6 13.3474V14.6526C6 15.4239 6.63718 16.0617 7.42429 16.0617C8.78111 16.0617 9.33583 17.0109 8.65367 18.1753C8.26387 18.8501 8.49625 19.7104 9.17841 20.096L10.4753 20.8302C11.0675 21.1788 11.8321 20.9712 12.1844 20.3853L12.2669 20.2444C12.9415 19.08 14.051 19.08 14.7331 20.2444L14.8156 20.3853C15.1679 20.9712 15.9325 21.1788 16.5247 20.8302L17.8216 20.096C18.5037 19.7104 18.7361 18.8427 18.3463 18.1753C17.6642 17.0109 18.2189 16.0617 19.5757 16.0617C20.3553 16.0617 21 15.4313 21 14.6526V13.3474C20.9925 12.5761 20.3553 11.9383 19.5682 11.9383ZM13.4963 16.4102C12.1544 16.4102 11.06 15.3275 11.06 14C11.06 12.6725 12.1544 11.5898 13.4963 11.5898C14.8381 11.5898 15.9325 12.6725 15.9325 14C15.9325 15.3275 14.8381 16.4102 13.4963 16.4102Z" fill="#0D7F61"/>
</svg>
