<svg width="26" height="29" viewBox="0 0 26 29" fill="none" xmlns="http://www.w3.org/2000/svg">
<path d="M16.5031 9.86121V4.04564H19.1279V9.86121H16.5031ZM21.3991 9.86121V1.61429H4.60205V9.86121H6.11258V3.65537C6.11247 3.60402 6.12226 3.55315 6.14137 3.50569C6.16048 3.45822 6.18855 3.41508 6.22395 3.37875C6.25936 3.34242 6.30141 3.31362 6.3477 3.29398C6.39398 3.27434 6.4436 3.26425 6.49369 3.26431H19.5075C19.6084 3.26441 19.7051 3.30558 19.7764 3.37875C19.8477 3.45193 19.8878 3.55114 19.8878 3.65458V9.86121H21.3991ZM21.7798 0.833744H22.5816V0H3.41958V0.833744H21.7783H21.7798ZM15.742 9.86121V4.04564H13.3794V9.86121H15.742ZM9.36176 9.86121V4.04564H6.87326V9.86121H9.36176ZM12.6198 9.86121V4.04564H10.1228V9.86121H12.6198ZM22.4123 20.5534H18.784V23.6446H22.4123V20.5534ZM17.2351 17.3585L18.2959 18.446C18.3673 18.5192 18.4642 18.5603 18.5651 18.5603C18.6661 18.5603 18.7629 18.5192 18.8343 18.446L19.9657 17.2863L21.0974 18.446C21.1327 18.4823 21.1746 18.511 21.2208 18.5307C21.2669 18.5503 21.3164 18.5604 21.3664 18.5604C21.4164 18.5604 21.4658 18.5503 21.512 18.5307C21.5582 18.511 21.6001 18.4823 21.6354 18.446L22.7861 17.2664L23.9004 18.4087V27.3857H17.2351V17.3585ZM18.0225 24.0352C18.0225 24.1388 18.0626 24.238 18.134 24.3112C18.2054 24.3844 18.3023 24.4255 18.4032 24.4255H22.7931C22.894 24.4254 22.9908 24.3843 23.0622 24.3111C23.1335 24.2379 23.1737 24.1387 23.1738 24.0352V20.1631C23.1737 20.0596 23.1335 19.9604 23.0622 19.8873C22.9908 19.8141 22.894 19.7729 22.7931 19.7728H18.4032C18.3023 19.7728 18.2054 19.814 18.134 19.8871C18.0626 19.9603 18.0225 20.0596 18.0225 20.1631V24.0352ZM25.2653 16.5339V12.2548H23.1482V16.5335L24.2064 17.6182L25.2653 16.5339ZM22.3875 16.5736V12.2548H20.3464V16.5724L21.3666 17.6182L22.3875 16.5736ZM19.5849 16.5724V12.2548H17.5449V16.5724L18.5651 17.6182L19.5849 16.5724ZM5.57847 16.5724V12.2548H3.53848V16.5724L4.55712 17.6182L5.57847 16.5724ZM3.15775 17.2871L4.2891 18.4468C4.3605 18.52 4.45732 18.5611 4.55828 18.5611C4.65924 18.5611 4.75607 18.52 4.82747 18.4468L5.9592 17.2871L7.09055 18.4468C7.16194 18.52 7.25877 18.5611 7.35973 18.5611C7.46069 18.5611 7.55752 18.52 7.62891 18.4468L8.76026 17.2871L8.76607 17.293V27.3857H2.10077V18.369L3.15775 17.2871ZM3.14149 19.774C3.04051 19.774 2.94367 19.8151 2.87227 19.8883C2.80087 19.9615 2.76076 20.0608 2.76076 20.1643V24.036C2.76076 24.1395 2.80087 24.2388 2.87227 24.312C2.94367 24.3852 3.04051 24.4263 3.14149 24.4263H7.53131C7.63229 24.4263 7.72913 24.3852 7.80053 24.312C7.87193 24.2388 7.91204 24.1395 7.91204 24.036V20.1631C7.91204 20.0596 7.87193 19.9603 7.80053 19.8871C7.72913 19.814 7.63229 19.7728 7.53131 19.7728L3.14149 19.774ZM8.37992 16.5724V12.2548H6.33877V16.5724L7.35895 17.6182L8.37992 16.5724ZM2.77702 16.5724V12.2548H0.737036V16.5724L1.75684 17.6182L2.77702 16.5724ZM7.15213 20.5534H3.52222V23.6446H7.15213V20.5534ZM24.2811 28.1663H0.5V29H25.5V28.1663H24.2811ZM13.9824 16.5732V12.2548H11.9424V16.5724L12.9619 17.6182L13.9824 16.5732ZM16.5875 16.7745L16.7839 16.5732V12.2548H14.7435V16.5724L15.7633 17.6182L16.5825 16.7781L16.5875 16.7745ZM12.6198 18.3706L11.5617 17.2859L10.4304 18.4456C10.359 18.5188 10.2621 18.5599 10.1612 18.5599C10.0602 18.5599 9.96339 18.5188 9.89199 18.4456L9.52753 18.0732V27.3857H12.6198V18.3706ZM11.1802 16.5724V12.2548H9.14099V16.5724L9.41211 16.8504L9.41831 16.8563L10.1604 17.617L11.1802 16.5724ZM16.4736 17.9938L16.0329 18.4456C15.9615 18.5188 15.8646 18.5599 15.7637 18.5599C15.6627 18.5599 15.5659 18.5188 15.4945 18.4456L14.3632 17.2859L13.3813 18.2923V27.3841H16.4736V17.9938ZM3.15775 11.4747H25.2641V10.641H0.737036V11.4747H3.15775Z" fill="#FF4E4E"/>
</svg>
