<svg width="24" height="25" viewBox="0 0 24 25" fill="none" xmlns="http://www.w3.org/2000/svg">
<path d="M1.77246 22.5431L3.19954 17.3325C2.31937 15.8076 1.8563 14.0776 1.85686 12.3054C1.85912 6.76096 6.37115 2.25024 11.9158 2.25024C14.6064 2.25156 17.1318 3.29866 19.0312 5.19936C20.93 7.10007 21.9756 9.62643 21.9747 12.3135C21.9722 17.8575 17.4594 22.369 11.9158 22.369C11.9154 22.369 11.9162 22.369 11.9158 22.369H11.9114C10.2281 22.3683 8.57404 21.9461 7.10476 21.1448L1.77246 22.5431Z" fill="white"/>
<path d="M11.9189 3.94879C7.30725 3.94879 3.55687 7.69781 3.55518 12.3059C3.55449 13.885 3.99642 15.4231 4.83326 16.7539L5.03221 17.07L4.1874 20.154L7.35171 19.3243L7.65726 19.5054C8.9406 20.2671 10.412 20.6699 11.9125 20.6706H11.9157C16.5238 20.6706 20.2742 16.9212 20.2761 12.3127C20.2769 10.0795 19.4082 7.97945 17.8296 6.39977C16.2511 4.82009 14.1522 3.94973 11.9189 3.94879Z" fill="url(#paint0_linear_273_1814)"/>
<path fill-rule="evenodd" clip-rule="evenodd" d="M9.40188 8.10156C9.21349 7.68314 9.0153 7.67466 8.83632 7.66731C8.68975 7.6611 8.52208 7.66147 8.3546 7.66147C8.18693 7.66147 7.9147 7.7244 7.68449 7.9759C7.45408 8.22741 6.80469 8.83536 6.80469 10.072C6.80469 11.3086 7.7054 12.5034 7.83087 12.6712C7.95653 12.8389 9.56955 15.4576 12.1244 16.4649C14.2474 17.3022 14.6794 17.1356 15.1404 17.0938C15.6012 17.052 16.6273 16.4858 16.8366 15.899C17.0461 15.3121 17.0461 14.8093 16.9834 14.7042C16.9205 14.5993 16.753 14.5365 16.5015 14.4109C16.2502 14.2852 15.0145 13.6771 14.7841 13.5932C14.5537 13.5094 14.3862 13.4676 14.2185 13.7191C14.0511 13.9706 13.5697 14.5365 13.423 14.7042C13.2764 14.8721 13.1298 14.893 12.8783 14.7673C12.627 14.6413 11.8175 14.3762 10.8572 13.52C10.1101 12.8538 9.60572 12.0311 9.45897 11.7796C9.3124 11.5281 9.44333 11.392 9.56936 11.2668C9.68221 11.1541 9.82068 10.9732 9.94653 10.8265C10.0718 10.6797 10.1138 10.575 10.1975 10.4075C10.2813 10.2396 10.2395 10.0929 10.1766 9.96722C10.1138 9.84157 9.62532 8.59854 9.40188 8.10156Z" fill="white"/>
<defs>
<linearGradient id="paint0_linear_273_1814" x1="11.7454" y1="4.95228" x2="11.8302" y2="19.242" gradientUnits="userSpaceOnUse">
<stop stop-color="#57D163"/>
<stop offset="1" stop-color="#23B33A"/>
</linearGradient>
</defs>
</svg>
